ModelForces
version=1
nRows=4
nColumns=103
inDegrees=no

This file contains the forces exerted on a model during a simulation.

A force is a generalized force, meaning that it can be either a force (N) or a torque (Nm).

Units are S.I. units (second, meters, Newtons, ...)
Angles are in degrees.

endheader
time	glut_med1_r	glut_med2_r	glut_med3_r	glut_min1_r	glut_min2_r	glut_min3_r	semimem_r	semiten_r	bifemlh_r	bifemsh_r	sar_r	add_long_r	add_brev_r	add_mag1_r	add_mag2_r	add_mag3_r	tfl_r	pect_r	grac_r	glut_max1_r	glut_max2_r	glut_max3_r	iliacus_r	psoas_r	quad_fem_r	gem_r	peri_r	rect_fem_r	vas_med_r	vas_int_r	vas_lat_r	med_gas_r	lat_gas_r	soleus_r	tib_post_r	flex_dig_r	flex_hal_r	tib_ant_r	per_brev_r	per_long_r	per_tert_r	ext_dig_r	ext_hal_r	glut_med1_l	glut_med2_l	glut_med3_l	glut_min1_l	glut_min2_l	glut_min3_l	semimem_l	semiten_l	bifemlh_l	bifemsh_l	sar_l	add_long_l	add_brev_l	add_mag1_l	add_mag2_l	add_mag3_l	tfl_l	pect_l	grac_l	glut_max1_l	glut_max2_l	glut_max3_l	iliacus_l	psoas_l	quad_fem_l	gem_l	peri_l	rect_fem_l	vas_med_l	vas_int_l	vas_lat_l	med_gas_l	lat_gas_l	soleus_l	tib_post_l	flex_dig_l	flex_hal_l	tib_ant_l	per_brev_l	per_long_l	per_tert_l	ext_dig_l	ext_hal_l	ercspn_r	ercspn_l	intobl_r	intobl_l	extobl_r	extobl_l	aACL_R	pACL_R	aPCL_R	pPCL_R	aMCL_R	aLCL_R	aPCL_L	pPCL_L	aMCL_L	aLCL_L
      0.03448092	     33.20012699	     17.42778954	     14.88648073	      7.17910494	      7.55449416	      6.89982366	      0.00000000	     26.29347639	      0.00000000	     28.97068401	     45.16095588	     23.52020354	     20.13182217	     15.63226876	     13.03098278	     20.31793220	      0.00000000	      7.78953545	     31.32375923	     14.35380000	     25.29836588	     22.54512077	     39.23719208	     37.44468557	     10.59642857	      2.73520235	      6.61500227	      0.00000000	      0.00000000	      0.00000000	      0.00000000	      0.00000000	      0.00000000	      0.00000000	     18.43702301	     11.96488288	      9.43111535	     50.11767782	     25.43867705	     44.92789043	     12.25612210	     29.33710147	      8.77196060	     43.70198581	     28.97267082	     23.22613978	      0.00000000	     16.54479687	     17.60728459	      6.97800768	      7.33627801	      7.38726168	      8.78871503	      3.54442868	     11.81161973	      7.96270504	      3.29760452	      3.99353197	      9.98298111	      7.56557013	      5.40352728	      2.28552102	     12.99651432	     15.94145690	      6.57211823	     58.22818854	     51.11077868	      1.77069609	      1.31024646	     13.13447969	      7.95856212	      0.94801101	      0.18729514	      0.00000000	      1.77876898	      0.90586661	     38.01546341	     39.57113444	     17.53491446	     17.86135522	     40.02141826	     16.13917473	     40.71507137	     10.39868013	     13.64711082	      3.11850949	    108.35634207	     64.31769423	     51.01618885	     11.57053347	     62.26518850	     39.63429304	   -106.12958081	    173.97293545	      0.00000000	     81.77840667	      0.00000000	      0.00000000	      0.00000000	      0.00000000	    -55.43007531	      0.00000000
      0.03476095	     32.97350932	     17.43336632	     14.97410520	      7.07618051	      7.46508738	      6.85146761	      0.00000000	     26.10492080	      0.00000000	     28.95833990	     44.99074244	     23.40089178	     20.11873567	     15.62502863	     13.03287720	     20.46435135	      0.00000000	      7.71893248	     31.32325412	     14.50019897	     25.58622658	     22.56936167	     38.66747592	     36.84437078	     10.73750420	      2.75419480	      6.58963766	      0.00000000	      0.00000000	      0.00000000	      0.00000000	      0.00000000	      0.00000000	      0.00000000	     17.93264489	     11.84266873	      9.32460103	     49.98771655	     25.38108658	     45.26801153	     12.11886549	     29.25519754	      8.73916372	     43.58520495	     28.84422960	     22.94174719	      1.33520109	     16.50227743	     17.53932417	      6.78322849	      7.25651969	      7.26155342	      8.63371600	      3.52851263	     11.80741017	      7.97189012	      3.30133118	      3.98976007	      9.95474996	      7.48065739	      5.40679635	      2.26882849	     12.91993011	     15.85191191	      6.54168947	     58.14137923	     50.97675202	      1.75935138	      1.28414106	     12.99961721	      7.81106541	      0.94946610	      0.16797646	      0.00000000	      1.67994508	      0.86774426	     38.42583300	     39.34304006	     17.45845743	     17.79043183	     39.69641289	     16.42361445	     40.98149691	     10.40882925	     13.57168237	      3.08313959	    107.72594207	     64.44402454	     50.88354064	     11.59401104	     62.06058627	     39.73438325	      0.00000000	    176.94488736	      0.00000000	     81.55561745	      0.00000000	      0.00000000	      0.00000000	      0.00000000	    -55.06832568	      0.00000000
      0.03488346	     32.87445230	     17.43885680	     15.01709904	      7.02978710	      7.42615525	      6.83110551	      0.00000000	     26.02836961	      0.00000000	     28.97712175	     44.90067885	     23.34599859	     20.11232348	     15.62309272	     13.03429794	     20.52626399	      0.00000000	      7.68624027	     31.32831689	     14.56752005	     25.71376229	     22.58199170	     38.41494614	     36.57903794	     10.80336704	      2.76307059	      6.57957569	      0.00000000	      0.00000000	      0.00000000	      0.00000000	      0.00000000	      0.00000000	      0.00000000	     17.71408246	     11.78951321	      9.27834671	     49.93676810	     25.35445579	     45.41491448	     12.11217173	     29.22060537	      8.72523910	     43.53622921	     28.78870245	     22.81527062	      2.50189550	     16.48487609	     17.50973008	      6.69935553	      7.22233692	      7.20700308	      8.56792553	      3.52156726	     11.80594641	      7.97529180	      3.30296783	      3.98826580	      9.94266127	      7.44402916	      5.40796392	      2.26168261	     12.88581142	     15.81261799	      6.52857844	     58.10356909	     50.91857481	      1.75339198	      1.27264456	     12.93993654	      7.74761183	      0.95060039	      0.16016043	      0.00000000	      1.63621564	      0.85067136	     38.60068728	     39.24173948	     17.42506738	     17.75947705	     39.55622182	     16.55002583	     41.09943331	     10.41251019	     13.53989965	      3.06810901	    107.43734274	     64.49681499	     50.82764878	     11.60462521	     61.97091149	     39.78011311	      0.00000000	    174.29042062	    201.60723587	     73.75968159	      0.00000000	      0.00000000	      0.00000000	      0.00000000	    -54.88672507	      0.00000000
      0.03500596	     32.76669164	     17.44039531	     15.05938626	      6.97347367	      7.38162477	      6.80881657	      0.00000000	     25.95938803	      0.00000000	     29.01153454	     44.79139423	     23.29495369	     20.12761721	     15.62901265	     13.03892107	     20.58791258	      0.00000000	      7.65608824	     31.34429835	     14.63575834	     25.84174603	     22.59858056	     38.16048315	     36.31204338	     10.88238902	      2.77311509	      6.56976229	      0.00000000	      0.00000000	      0.00000000	      0.00000000	      0.00000000	      0.00000000	      0.00000000	     17.49324268	     11.73553693	      9.23161642	     49.88070533	     25.33447956	     45.56742122	     12.11157248	     29.18710145	      8.71089026	     43.48847461	     28.73412573	     22.68812878	      3.59946058	     16.46830460	     17.48056215	      6.61647953	      7.18869192	      7.15284266	      8.50377047	      3.51489237	     11.80443331	      7.97742624	      3.30433874	      3.98672741	      9.93064934	      7.40777214	      5.40881244	      2.25471361	     12.85142103	     15.77327811	      6.51543251	     58.06595777	     50.86073076	      1.74678798	      1.26110864	     12.87996026	      7.68506822	      0.95241409	      0.15303391	      0.00000000	      1.59242911	      0.83342383	     38.77262898	     39.13958620	     17.39171937	     17.72857162	     39.41731062	     16.67754814	     41.21810726	     10.41574016	     13.50884068	      3.05334599	    107.14199976	     64.55087891	     50.77151907	     11.61561938	     61.88054734	     39.82701995	      0.00000000	    173.08403544	    196.32789835	     52.58533084	      0.00000000	      0.00000000	      0.00000000	      0.00000000	    -54.53708645	      0.00000000
